<svg xmlns="http://www.w3.org/2000/svg" width="512" height="512" viewBox="0 0 512 512" version="1.1">
	<path d="M 235 41.080 C 186.076 45.730, 138.856 68.144, 103.500 103.500 C 49.285 157.715, 27.984 235.522, 46.984 309.936 C 56.336 346.564, 76.191 381.191, 103.500 408.500 C 157.715 462.715, 235.522 484.016, 309.936 465.016 C 346.564 455.664, 381.191 435.809, 408.500 408.500 C 462.715 354.285, 484.016 276.478, 465.016 202.064 C 455.664 165.436, 435.809 130.809, 408.500 103.500 C 362.728 57.728, 299.434 34.957, 235 41.080 M 234.500 49.107 C 195.310 53.228, 154.979 70.031, 124.712 94.847 C 116.276 101.764, 100.129 118.018, 93.493 126.273 C 69.277 156.399, 52.999 196.527, 49.042 235.856 C 41.413 311.676, 77.627 387.393, 141.709 429.607 C 214.859 477.795, 309.703 474.825, 380.768 422.122 C 391.989 413.801, 413.801 391.989, 422.122 380.768 C 457.455 333.125, 471.350 272.857, 460.025 216.366 C 449.006 161.399, 416.784 113.378, 370 82.198 C 331.618 56.619, 280.888 44.230, 234.500 49.107 M 236 73.105 C 165.303 81.079, 105.275 129.122, 82.125 196.259 C 59.231 262.656, 76.249 336.128, 126.061 385.939 C 197.950 457.829, 314.050 457.829, 385.939 385.939 C 457.829 314.050, 457.829 197.950, 385.939 126.061 C 346.605 86.727, 290.601 66.947, 236 73.105 M 234.853 81.507 C 174.704 88.793, 122.391 126.894, 96.570 182.222 C 62.705 254.785, 82.899 341.848, 145.304 392.334 C 157.399 402.118, 166.687 408.010, 180.314 414.541 C 221.482 434.272, 267.987 437.282, 311.259 423.016 C 324.110 418.779, 346.676 407.310, 358 399.261 C 370.188 390.597, 390.597 370.188, 399.261 358 C 407.310 346.676, 418.779 324.110, 423.016 311.259 C 434.747 275.676, 434.747 236.324, 423.016 200.741 C 418.779 187.890, 407.310 165.324, 399.261 154 C 390.552 141.750, 370.127 121.347, 358 112.786 C 333.686 95.621, 305.742 84.940, 276.067 81.469 C 261.218 79.732, 249.416 79.743, 234.853 81.507 M 239.784 122.750 L 239.500 133.500 232.500 134.251 C 201.169 137.612, 175.395 155.978, 167.023 180.912 C 164.036 189.808, 163.293 205.141, 165.377 214.906 C 170.890 240.740, 189.070 257.817, 227.166 272.946 L 239.500 277.844 239.763 312.345 L 240.026 346.846 236.263 345.813 C 224.920 342.698, 218.084 335.411, 216.482 324.727 L 215.773 320 189.886 320 C 160.197 320, 162.523 319.006, 165.985 330.217 C 173.403 354.232, 201.601 373.878, 235.250 378.474 L 240 379.123 240 389.561 L 240 400 256 400 L 272 400 272 389.664 L 272 379.327 282.464 377.622 C 302.890 374.294, 316.353 367.772, 329.039 355.058 C 342.344 341.724, 348 328.283, 348 310 C 348 289.203, 339.415 272.207, 322.227 258.978 C 312.835 251.749, 303.668 246.856, 286.500 239.908 L 272.500 234.242 272.237 199.549 L 271.974 164.857 274.237 165.509 C 279.683 167.077, 287.100 171.349, 289.889 174.526 C 292.734 177.766, 296 186.134, 296 190.182 C 296 191.893, 297.532 192, 322 192 C 351.819 192, 349.478 192.996, 346.015 181.783 C 342.007 168.807, 330.253 155.294, 315.422 146.613 C 306.070 141.138, 288.650 135.260, 279.166 134.379 L 272 133.713 272 122.856 L 272 112 256.034 112 L 240.068 112 239.784 122.750 M 248 130.337 L 248 140.674 236.876 141.880 C 202.107 145.651, 177.468 164.362, 172.935 190.437 C 171.405 199.239, 172.273 211.694, 174.955 219.420 C 182.492 241.138, 199.227 253.863, 240.750 269.453 L 248 272.175 248 314.087 C 248 354.119, 247.917 356, 246.160 356 C 242.306 356, 228.496 351.895, 224.529 349.570 C 218.520 346.048, 212.431 338.982, 210.345 333.109 L 208.531 328 191.265 328 C 180.051 328, 174 328.362, 174 329.033 C 174 331.867, 179.931 341.142, 185.353 346.790 C 192.768 354.511, 202.994 361.043, 213.898 365.022 C 222.636 368.211, 236.508 371, 243.631 371 L 248 371 248 381.500 L 248 392 256 392 L 264 392 264 381.650 L 264 371.299 272.750 370.676 C 293.069 369.227, 311.567 361.530, 323.565 349.532 C 337.620 335.477, 343.297 315.261, 338.470 296.460 C 332.503 273.224, 314.411 258.712, 271.250 242.541 L 264 239.825 264 197.913 L 264 156 266.250 156.015 C 270.715 156.044, 281.430 159.109, 286.262 161.739 C 292.676 165.230, 299.539 172.934, 301.730 179.103 L 303.469 184 320.735 184 C 331.949 184, 338 183.638, 338 182.967 C 338 180.444, 332.665 171.795, 327.879 166.558 C 315.535 153.052, 296.896 144.427, 274.638 141.923 L 264 140.726 264 130.363 L 264 120 256 120 L 248 120 248 130.337 M 236 157.600 C 221.823 161.384, 210.983 169.140, 206.391 178.786 C 204.197 183.394, 203.664 185.952, 203.636 192 C 203.565 207.395, 211.418 216.733, 233.571 227.592 C 240.760 231.117, 246.947 234, 247.321 234 C 247.694 234, 248 216.450, 248 195 L 248 156 244.750 156.066 C 242.963 156.102, 239.025 156.792, 236 157.600 M 233.465 166.886 C 226.569 169.370, 224.461 170.589, 219.839 174.764 C 214.332 179.740, 211.799 185.106, 211.735 191.932 C 211.635 202.477, 218.057 210.685, 232.137 218.010 L 240 222.101 240 193.551 C 240 177.848, 239.662 165.016, 239.250 165.036 C 238.838 165.056, 236.234 165.888, 233.465 166.886 M 264 317.015 L 264 356 266.340 356 C 270.434 356, 283.624 352.224, 288.940 349.530 C 303.318 342.245, 310.705 328.675, 308.066 314.399 C 306.694 306.980, 303.260 301.259, 296.757 295.561 C 291.489 290.945, 279.087 283.973, 269.250 280.098 L 264 278.029 264 317.015 M 272 318.513 L 272 347.135 274.250 346.498 C 291.801 341.533, 300.344 332.914, 300.325 320.189 C 300.310 309.841, 293.313 301.091, 279.071 293.607 L 272 289.891 272 318.513" stroke="none" fill="black" fill-rule="evenodd"/>
</svg>