<svg width="187" height="340" viewBox="0 0 187 340" fill="none" xmlns="http://www.w3.org/2000/svg">
<path d="M186.122 232.344C186.319 205.524 175.717 184.313 154.57 169.334C138.237 157.801 118.416 151.785 99.245 146.004C59.309 133.897 47.7241 127.52 47.7241 108.422C47.7241 87.149 75.3701 79.58 99.0371 79.58C116.273 79.58 136.103 84.939 148.418 92.881L172.833 55.069C156.738 44.635 134.71 37.518 112.958 35.309V0H67.9201V37.785C27.8851 46.592 2.66505 72.758 2.66505 108.422C2.66505 133.399 13.0441 153.207 33.4551 167.178C48.9791 177.844 67.9121 183.571 86.2011 189.116C125.373 200.956 141.28 208.171 141.099 232.065L141.098 232.241C141.098 252.296 114.521 259.425 91.7521 259.425C70.2441 259.425 46.8551 249.999 33.5971 235.984L0.878052 266.933C17.6681 284.691 42.0621 297.246 67.9191 302.167V339.005H112.958V302.96C157.445 296.592 186.078 269.809 186.122 232.344Z" fill="#EA4150"/>
</svg>
